<svg xmlns="http://www.w3.org/2000/svg" viewBox="0 0 80 80" width="80" height="80">
  <circle cx="40" cy="40" r="40" fill="#d31334"/>
  <path fill="#ffffff" d="M40 16c-5.75 0-9.1 3.94-10.86 7.41-1.54 3.02-2.56 6.54-3.19 9.4 2.32.8 4.15 2.22 5.49 4.17 1.48 2.15 2.28 4.81 2.28 7.66 0 5.22-2.25 10.16-6.03 13.65 1.83.78 3.86 1.2 5.98 1.2 2.76 0 5.43-.69 7.73-2.01 0 0 2.44-1.39 0-6.61-2-4.49-3.58-7.72-3.58-12.47 0-4.28 1.08-8 3.18-11.04l.12-.17C41.55 29.86 43.5 33.9 43.5 38.8c0 4.75-1.58 7.97-3.58 12.47-2.44 5.22 0 6.61 0 6.61 2.3 1.32 4.97 2.01 7.73 2.01 2.12 0 4.15-.42 5.98-1.2-3.78-3.49-6.03-8.43-6.03-13.65 0-2.85.8-5.51 2.28-7.66 1.34-1.95 3.17-3.37 5.49-4.17-.63-2.86-1.65-6.38-3.19-9.4C49.1 19.94 45.75 16 40 16z"/>
</svg>

