<svg xmlns="http://www.w3.org/2000/svg" width="200" height="24" viewBox="0 0 200 24">
  <defs>
    <style>
      .text { fill: #a3a3a3; font-family: -apple-system, BlinkMacSystemFont, Segoe UI, Roboto, Helvetica, Arial, sans-serif; font-weight: 600; }
    </style>
  </defs>
  <g>
    <circle cx="12" cy="12" r="10" fill="#b3b3b3"/>
    <path d="M12 6c-1.5 0-2.3 1.05-2.76 1.97-.39.76-.64 1.63-.8 2.35.58.2 1.06.55 1.4 1.03.37.53.58 1.2.58 1.92 0 1.31-.55 2.55-1.53 3.43.47.19.98.3 1.51.3.7 0 1.37-.18 1.95-.5 0 0 .62-.35 0-1.62-.5-1.1-.9-1.92-.9-3.1 0-1.07.27-2 .8-2.76C12.9 9.7 13.4 11 13.4 12.6c0 1.18-.4 2-.9 3.1-.62 1.27 0 1.62 0 1.62.58.32 1.25.5 1.95.5.53 0 1.04-.11 1.51-.3-.98-.88-1.53-2.12-1.53-3.43 0-.72.21-1.39.58-1.92.34-.48.82-.83 1.4-1.03-.16-.72-.41-1.59-.8-2.35C14.3 7.05 13.5 6 12 6z" fill="#ffffff"/>
  </g>
  <text class="text" x="28" y="16">Powered by Narvar</text>
</svg>

